<mxfile host="app.diagrams.net" modified="2023-09-26T19:38:39.830Z" agent="Mozilla/5.0 (Macintosh; Intel Mac OS X 10_15_7) AppleWebKit/537.36 (KHTML, like Gecko) Chrome/117.0.0.0 Safari/537.36" etag="5wtfA-SKjHMGyPr_-2nH" version="21.8.2" type="device">
  <diagram name="Page-1" id="yYsZeYdzG83Yt3zXVJj6">
    <mxGraphModel dx="726" dy="464" grid="1" gridSize="10" guides="1" tooltips="1" connect="1" arrows="1" fold="1" page="1" pageScale="1" pageWidth="850" pageHeight="1100" math="0" shadow="0">
      <root>
        <mxCell id="0" />
        <mxCell id="1" parent="0" />
        <mxCell id="8h4wa-Bp1QJKBguJAS3M-10" value="" style="rounded=0;whiteSpace=wrap;html=1;fillColor=#f5f5f5;fontColor=#333333;strokeColor=#666666;dashed=1;" vertex="1" parent="1">
          <mxGeometry x="180" y="60" width="470" height="210" as="geometry" />
        </mxCell>
        <mxCell id="8h4wa-Bp1QJKBguJAS3M-2" value="Event Bus" style="rounded=1;whiteSpace=wrap;html=1;" vertex="1" parent="1">
          <mxGeometry x="200" y="160" width="430" height="40" as="geometry" />
        </mxCell>
        <mxCell id="8h4wa-Bp1QJKBguJAS3M-3" value="Knowledge&lt;br&gt;Controller" style="rounded=1;whiteSpace=wrap;html=1;" vertex="1" parent="1">
          <mxGeometry x="200" y="210" width="100" height="40" as="geometry" />
        </mxCell>
        <mxCell id="8h4wa-Bp1QJKBguJAS3M-5" value="Risk&lt;br&gt;Controller" style="rounded=1;whiteSpace=wrap;html=1;" vertex="1" parent="1">
          <mxGeometry x="310" y="210" width="100" height="40" as="geometry" />
        </mxCell>
        <mxCell id="8h4wa-Bp1QJKBguJAS3M-6" value="Auction&lt;br&gt;Controller" style="rounded=1;whiteSpace=wrap;html=1;" vertex="1" parent="1">
          <mxGeometry x="420" y="210" width="100" height="40" as="geometry" />
        </mxCell>
        <mxCell id="8h4wa-Bp1QJKBguJAS3M-7" value="Proposal&lt;br&gt;Controller" style="rounded=1;whiteSpace=wrap;html=1;" vertex="1" parent="1">
          <mxGeometry x="530" y="210" width="100" height="40" as="geometry" />
        </mxCell>
        <mxCell id="8h4wa-Bp1QJKBguJAS3M-9" value="Message Broker" style="shape=step;perimeter=stepPerimeter;whiteSpace=wrap;html=1;fixedSize=1;" vertex="1" parent="1">
          <mxGeometry x="160" y="110" width="510" height="40" as="geometry" />
        </mxCell>
        <mxCell id="8h4wa-Bp1QJKBguJAS3M-11" value="ADRIAN Agent" style="text;html=1;strokeColor=none;fillColor=none;align=center;verticalAlign=middle;whiteSpace=wrap;rounded=0;fontStyle=1" vertex="1" parent="1">
          <mxGeometry x="180" y="70" width="470" height="30" as="geometry" />
        </mxCell>
        <mxCell id="8h4wa-Bp1QJKBguJAS3M-13" style="edgeStyle=orthogonalEdgeStyle;rounded=0;orthogonalLoop=1;jettySize=auto;html=1;exitX=0.25;exitY=0;exitDx=0;exitDy=0;entryX=0.058;entryY=1.001;entryDx=0;entryDy=0;entryPerimeter=0;endArrow=block;endFill=1;strokeWidth=2;" edge="1" parent="1" source="8h4wa-Bp1QJKBguJAS3M-3" target="8h4wa-Bp1QJKBguJAS3M-2">
          <mxGeometry relative="1" as="geometry" />
        </mxCell>
        <mxCell id="8h4wa-Bp1QJKBguJAS3M-14" style="edgeStyle=orthogonalEdgeStyle;rounded=0;orthogonalLoop=1;jettySize=auto;html=1;exitX=0.75;exitY=0;exitDx=0;exitDy=0;endArrow=none;endFill=0;strokeWidth=2;startArrow=block;startFill=1;" edge="1" parent="1" source="8h4wa-Bp1QJKBguJAS3M-3">
          <mxGeometry relative="1" as="geometry">
            <mxPoint x="275" y="200" as="targetPoint" />
          </mxGeometry>
        </mxCell>
        <mxCell id="8h4wa-Bp1QJKBguJAS3M-16" style="edgeStyle=orthogonalEdgeStyle;shape=connector;rounded=0;orthogonalLoop=1;jettySize=auto;html=1;exitX=0.25;exitY=0;exitDx=0;exitDy=0;labelBackgroundColor=default;strokeColor=default;strokeWidth=2;align=center;verticalAlign=middle;fontFamily=Helvetica;fontSize=11;fontColor=default;endArrow=block;endFill=1;" edge="1" parent="1" source="8h4wa-Bp1QJKBguJAS3M-5">
          <mxGeometry relative="1" as="geometry">
            <mxPoint x="335" y="200" as="targetPoint" />
          </mxGeometry>
        </mxCell>
        <mxCell id="8h4wa-Bp1QJKBguJAS3M-17" style="edgeStyle=orthogonalEdgeStyle;shape=connector;rounded=0;orthogonalLoop=1;jettySize=auto;html=1;exitX=0.75;exitY=0;exitDx=0;exitDy=0;entryX=0.43;entryY=1.01;entryDx=0;entryDy=0;entryPerimeter=0;labelBackgroundColor=default;strokeColor=default;strokeWidth=2;align=center;verticalAlign=middle;fontFamily=Helvetica;fontSize=11;fontColor=default;endArrow=none;endFill=0;startArrow=block;startFill=1;" edge="1" parent="1" source="8h4wa-Bp1QJKBguJAS3M-5" target="8h4wa-Bp1QJKBguJAS3M-2">
          <mxGeometry relative="1" as="geometry" />
        </mxCell>
        <mxCell id="8h4wa-Bp1QJKBguJAS3M-18" style="edgeStyle=orthogonalEdgeStyle;shape=connector;rounded=0;orthogonalLoop=1;jettySize=auto;html=1;exitX=0.25;exitY=0;exitDx=0;exitDy=0;entryX=0.57;entryY=1.002;entryDx=0;entryDy=0;entryPerimeter=0;labelBackgroundColor=default;strokeColor=default;strokeWidth=2;align=center;verticalAlign=middle;fontFamily=Helvetica;fontSize=11;fontColor=default;endArrow=block;endFill=1;" edge="1" parent="1" source="8h4wa-Bp1QJKBguJAS3M-6" target="8h4wa-Bp1QJKBguJAS3M-2">
          <mxGeometry relative="1" as="geometry" />
        </mxCell>
        <mxCell id="8h4wa-Bp1QJKBguJAS3M-20" style="edgeStyle=orthogonalEdgeStyle;shape=connector;rounded=0;orthogonalLoop=1;jettySize=auto;html=1;exitX=0.75;exitY=0;exitDx=0;exitDy=0;entryX=0.686;entryY=1.006;entryDx=0;entryDy=0;entryPerimeter=0;labelBackgroundColor=default;strokeColor=default;strokeWidth=2;align=center;verticalAlign=middle;fontFamily=Helvetica;fontSize=11;fontColor=default;endArrow=none;endFill=0;startArrow=block;startFill=1;" edge="1" parent="1" source="8h4wa-Bp1QJKBguJAS3M-6" target="8h4wa-Bp1QJKBguJAS3M-2">
          <mxGeometry relative="1" as="geometry" />
        </mxCell>
        <mxCell id="8h4wa-Bp1QJKBguJAS3M-21" style="edgeStyle=orthogonalEdgeStyle;shape=connector;rounded=0;orthogonalLoop=1;jettySize=auto;html=1;exitX=0.25;exitY=0;exitDx=0;exitDy=0;entryX=0.826;entryY=1.002;entryDx=0;entryDy=0;entryPerimeter=0;labelBackgroundColor=default;strokeColor=default;strokeWidth=2;align=center;verticalAlign=middle;fontFamily=Helvetica;fontSize=11;fontColor=default;endArrow=block;endFill=1;" edge="1" parent="1" source="8h4wa-Bp1QJKBguJAS3M-7" target="8h4wa-Bp1QJKBguJAS3M-2">
          <mxGeometry relative="1" as="geometry" />
        </mxCell>
        <mxCell id="8h4wa-Bp1QJKBguJAS3M-22" style="edgeStyle=orthogonalEdgeStyle;shape=connector;rounded=0;orthogonalLoop=1;jettySize=auto;html=1;exitX=0.75;exitY=0;exitDx=0;exitDy=0;entryX=0.942;entryY=1.006;entryDx=0;entryDy=0;entryPerimeter=0;labelBackgroundColor=default;strokeColor=default;strokeWidth=2;align=center;verticalAlign=middle;fontFamily=Helvetica;fontSize=11;fontColor=default;endArrow=none;endFill=0;startArrow=block;startFill=1;" edge="1" parent="1" source="8h4wa-Bp1QJKBguJAS3M-7" target="8h4wa-Bp1QJKBguJAS3M-2">
          <mxGeometry relative="1" as="geometry" />
        </mxCell>
        <mxCell id="8h4wa-Bp1QJKBguJAS3M-25" style="edgeStyle=orthogonalEdgeStyle;shape=connector;rounded=0;orthogonalLoop=1;jettySize=auto;html=1;exitX=0.25;exitY=0;exitDx=0;exitDy=0;entryX=0.289;entryY=1.014;entryDx=0;entryDy=0;entryPerimeter=0;labelBackgroundColor=default;strokeColor=default;strokeWidth=2;align=center;verticalAlign=middle;fontFamily=Helvetica;fontSize=11;fontColor=default;endArrow=block;endFill=1;" edge="1" parent="1" source="8h4wa-Bp1QJKBguJAS3M-2" target="8h4wa-Bp1QJKBguJAS3M-9">
          <mxGeometry relative="1" as="geometry" />
        </mxCell>
        <mxCell id="8h4wa-Bp1QJKBguJAS3M-26" style="edgeStyle=orthogonalEdgeStyle;shape=connector;rounded=0;orthogonalLoop=1;jettySize=auto;html=1;exitX=0.75;exitY=0;exitDx=0;exitDy=0;entryX=0.711;entryY=1.026;entryDx=0;entryDy=0;entryPerimeter=0;labelBackgroundColor=default;strokeColor=default;strokeWidth=2;align=center;verticalAlign=middle;fontFamily=Helvetica;fontSize=11;fontColor=default;endArrow=none;endFill=0;startArrow=block;startFill=1;" edge="1" parent="1" source="8h4wa-Bp1QJKBguJAS3M-2" target="8h4wa-Bp1QJKBguJAS3M-9">
          <mxGeometry relative="1" as="geometry" />
        </mxCell>
      </root>
    </mxGraphModel>
  </diagram>
</mxfile>
